# xmcd
#
# Track frame offsets:
#	150
#	15864
#	33449
#	43535
#	53016
#	62569
#	74766
#	87783
#	100147
#	116282
#	127136
#	137025
#	147557
#	160089
#	169933
#	181036
#	190910
#	208019
#
# Disc length: 2944 seconds
# Revision: 1
# Processed by: cddbd v1.5.2PL0 Copyright (c) Steve Scherf et al.
# Submitted via: dBpowerAMP V12.0
#
DISCID=f80b7e12
DTITLE=Various Artist - Country (1996) 4CDs - CD2
DYEAR=1996
DGENRE=International USA English Oldies Country Vocal Guitar Banjo LineDance
TTITLE0=Billie Jo Spears - Blanket on the ground (1974)
TTITLE1=Skeeter Davis - Always on my mind (1981 Brenda Lee 1971)
TTITLE2=Johnny Cash - Ballad of a teenage queen (1958)
TTITLE3=Merle Travis - 16 tons (1946)
TTITLE4=Ned Miller - From a jack to king (1957)
TTITLE5=Frankie Laine - High noon (Do not forsake me, o my darlin´ 1952 Cover Tex Ritter 1952)
TTITLE6=Freddy Fender - Silver wings (1984 Cover Merle Haggard 1969)
TTITLE7=Kenny Rogers - Ruben James (1969)
TTITLE8=Lynn Anderson - The devil went down to Georgia (1980 Cover Charlie Daniels band 1979)
TTITLE9=Dolly Parton - It wasn´t god who made honkytonk angels (1966-1969? Cover Kitty Wells 1952)
TTITLE10=Dave Dudley - Six days on the road (1963)
TTITLE11=Patsy Cline - I don´t wanna (1957)
TTITLE12=Gene Autry - Goodnight Irene (1950 Cover Lead belly 1932)
TTITLE13=Willie Nelson - Let´s pretend (unknown)
TTITLE14=Merle Kilgore - Love has made you beautiful (1960)
TTITLE15=Hank Locklin - Please help me I'm falling (1960)
TTITLE16=Glen Campbell - Southern nights (1977)
TTITLE17=Charlie Rich - Behind closed doors (1973)
EXTD=
EXTT0=
EXTT1=
EXTT2=
EXTT3=
EXTT4=
EXTT5=
EXTT6=
EXTT7=
EXTT8=
EXTT9=
EXTT10=
EXTT11=
EXTT12=
EXTT13=
EXTT14=
EXTT15=
EXTT16=
EXTT17=
PLAYORDER=
